<?xml version="1.0" encoding="utf-8"?>
<!-- Generator: Adobe Illustrator 25.0.0, SVG Export Plug-In . SVG Version: 6.00 Build 0)  -->
<svg version="1.1" id="Calque_1" xmlns="http://www.w3.org/2000/svg" xmlns:xlink="http://www.w3.org/1999/xlink" x="0px" y="0px"
	 viewBox="0 0 872.2 435.7" style="enable-background:new 0 0 872.2 435.7;" xml:space="preserve">
<style type="text/css">
	.st0{fill:#FFFFFF;}
</style>
<path class="st0" d="M9.1,194.9l24.4-17.8c5.9,10.7,14,15.6,22.1,15.6c12.8,0,19.8-6.4,19.8-27.2v-101h35.9v103.8
	c0,29.9-15.8,54.6-50.9,54.6C36,223,20.1,213.7,9.1,194.9z"/>
<path class="st0" d="M175.8,187.3c0-25,20.2-38.5,68-43.4c-0.7-10.4-6-17.1-19.1-17.1c-10.1,0-20.2,4.2-32,10.7l-12.7-23
	c15.3-9.2,32.6-15.6,51.6-15.6c30.9,0,48,17.3,48,53.6v67.7h-29.2l-2.6-12.1h-0.9c-10.2,8.8-21.6,15-35.1,15
	C189.7,223,175.8,207.3,175.8,187.3z M243.8,185.7V165c-25.4,3.4-33.7,10.5-33.7,19.5c0,7.6,5.3,11.4,13.8,11.4
	C232,195.9,237.4,191.9,243.8,185.7L243.8,185.7z"/>
<path class="st0" d="M300.7,66c0-10.8,8.7-18.3,20.7-18.3s20.7,7.6,20.7,18.3s-8.7,18.4-20.7,18.4S300.7,76.7,300.7,66z
	 M303.5,101.7h35.8v118.4h-35.8V101.7z"/>
<path class="st0" d="M364.6,101.7h29.2l2.6,15.2h0.9c9.9-9.8,20.7-18.1,36.6-18.1c17,0,27.2,7.2,33.3,19.9
	c10.6-10.9,22-19.9,37.9-19.9c26.1,0,37.8,18.2,37.8,47.8v73.5h-35.8v-69c0-17-4.8-22.4-14.9-22.4c-6.1,0-12.9,3.7-20.5,11.5v79.9
	h-35.8v-69c0-17-4.8-22.4-14.9-22.4c-6,0-12.9,3.7-20.5,11.5v79.9h-35.8V101.7H364.6z"/>
<path class="st0" d="M560.1,161c0-38.4,28-62.1,57-62.1c34.4,0,51.4,24.5,51.4,56.9c0,5.2-0.5,10.4-1.5,15.5h-72.2
	c3.2,17.2,15.2,25.1,31.3,25.1c9.1,0,17.3-2.7,26.1-7.8l11.8,21.1c-12.7,8.5-27.6,13.1-42.8,13.3C586.7,223,560.1,200.2,560.1,161z
	 M637.9,148c0-13-5.8-22.4-20.1-22.4c-11.3,0-21.1,7.4-23.5,22.4H637.9z"/>
<path class="st0" d="M21.2,259.3H39l20.6,65.6H43.9l-8.6-33.2c-1.8-6.6-3.6-14.3-5.3-21.2h-0.4c-1.6,6.9-3.3,14.6-5.2,21.2
	l-8.6,33.2H0.6L21.2,259.3z M14.2,297.8h31.6v11.5H14.2V297.8z"/>
<path class="st0" d="M65.9,259.3h23.6c13.9,0,25.3,4.8,25.3,20.4c0,15.1-11.4,21.6-25.3,21.6h-8.8v23.6H65.9V259.3z M88.3,289.5
	c7.8,0,12-3.3,12-9.8s-4.2-8.7-12-8.7h-7.6v18.5H88.3z M86.8,297.4l10.3-9.5l21,37h-16.6L86.8,297.4z"/>
<path class="st0" d="M127.6,259.3h23.6c13.9,0,25.3,4.8,25.3,20.4c0,15.1-11.4,21.6-25.3,21.6h-8.8v23.6h-14.8
	C127.6,324.9,127.6,259.3,127.6,259.3z M150.1,289.5c7.8,0,12-3.3,12-9.8s-4.2-8.7-12-8.7h-7.6v18.5H150.1z M148.6,297.4l10.3-9.5
	l21,37h-16.6L148.6,297.4z"/>
<path class="st0" d="M186.3,291.8c0-21.4,12.1-33.7,29.8-33.7s29.8,12.4,29.8,33.7s-12.1,34.3-29.8,34.3S186.3,313.3,186.3,291.8z
	 M230.7,291.8c0-13.2-5.7-20.9-14.6-20.9s-14.6,7.8-14.6,20.9s5.7,21.5,14.6,21.5S230.7,305,230.7,291.8L230.7,291.8z"/>
<path class="st0" d="M258.3,259.3h15.2l17.1,32.6l6.5,14.4h0.4c-0.7-6.9-1.9-16.1-1.9-23.9v-23.2h14.1v65.6h-15.2l-17.1-32.7
	l-6.5-14.3h-0.4c0.7,7.2,1.9,16,1.9,23.8v23.3h-14.1V259.3z"/>
<path class="st0" d="M325.2,259.3h18.6c20,0,33,10,33,32.5s-12.9,33.1-32.1,33.1h-19.4v-65.6H325.2z M342.9,313
	c11.1,0,18.7-5.5,18.7-21.2s-7.6-20.5-18.7-20.5h-2.8V313H342.9z"/>
<path class="st0" d="M389.2,259.3H404v65.6h-14.8V259.3z"/>
<path class="st0" d="M415.3,316.7l8.5-10.2c4.7,4.1,10.7,6.9,16.1,6.9c6.2,0,9.2-2.4,9.2-6.3c0-4.1-3.7-5.5-9.5-7.8l-8.5-3.6
	c-6.8-2.8-13.2-8.3-13.2-17.9c0-10.9,9.7-19.6,23.4-19.6c7.9,0,15.5,3.1,21.1,8.6l-7.5,9.3c-4.3-3.3-8.4-5.1-13.6-5.1
	s-8.4,2.1-8.4,5.9c0,4,4.3,5.5,10,7.8l8.4,3.4c8,3.2,13,8.6,13,17.9c0,10.9-9.1,20.3-24.7,20.3C430.6,326.1,421.9,322.7,415.3,316.7
	z"/>
<path class="st0" d="M469.5,316.7l8.5-10.2c4.7,4.1,10.7,6.9,16.1,6.9c6.2,0,9.2-2.4,9.2-6.3c0-4.1-3.7-5.5-9.5-7.8l-8.5-3.6
	c-6.8-2.8-13.2-8.3-13.2-17.9c0-10.9,9.7-19.6,23.4-19.6c7.9,0,15.5,3.1,21.1,8.6l-7.5,9.3c-4.3-3.3-8.4-5.1-13.6-5.1
	s-8.4,2.1-8.4,5.9c0,4,4.3,5.5,10,7.8l8.4,3.4c8,3.2,13,8.6,13,17.9c0,10.9-9.1,20.3-24.7,20.3C484.7,326.1,476.1,322.7,469.5,316.7
	z"/>
<path class="st0" d="M529.7,259.3h41.1v12.4h-26.3v13.2h22.4v12.5h-22.4v15.1h27.3V325h-42.1V259.3z"/>
<path class="st0" d="M584.9,259.3h16.2l10.7,29.2c1.3,3.9,2.5,8.1,3.8,12.1h0.4c1.3-4,2.4-8.2,3.7-12.1l10.3-29.2h16.2v65.6h-13.5
	v-24.1c0-6.4,1.2-16,1.9-22.3h-0.4l-5.4,15.5l-9.3,25.2h-8.2L602,294l-5.2-15.5h-0.4c0.7,6.3,1.9,15.9,1.9,22.3V325H585L584.9,259.3
	z"/>
<path class="st0" d="M661.6,259.3h41.1v12.4h-26.3v13.2h22.4v12.5h-22.4v15.1h27.3V325h-42.1V259.3z"/>
<path class="st0" d="M716.8,259.3H732l17.1,32.6l6.5,14.4h0.4c-0.7-6.9-1.9-16.1-1.9-23.9v-23.2h14.1v65.6H753l-17-32.6l-6.5-14.3
	h-0.4c0.7,7.2,1.9,16,1.9,23.8V325h-14.1L716.8,259.3z"/>
<path class="st0" d="M796.6,271.8h-18.1v-12.5h51v12.4h-18.1v53.2h-14.8L796.6,271.8z"/>
<path class="st0" d="M0,349.3h24.4c26.4,0,43.3,13.1,43.3,42.8s-17,43.5-42.3,43.5H0V349.3z M23.2,420c14.7,0,24.5-7.2,24.5-27.8
	S37.9,365,23.2,365h-3.7v55H23.2z"/>
<path class="st0" d="M84.1,349.3h54.1v16.4h-34.6V383H133v16.4h-29.4v19.9h35.9v16.4H84.1V349.3z"/>
<path class="st0" d="M183.2,349.3h19.5v70h34.1v16.4h-53.6L183.2,349.3z"/>
<path class="st0" d="M251.8,349.3h19.5v86.3h-19.5L251.8,349.3L251.8,349.3z"/>
<path class="st0" d="M291.7,349.3h29.5c17.9,0,31.8,4.9,31.8,21.4c0,7.8-4.3,16-11.4,18.6v0.5c8.8,2.3,15.6,8.8,15.6,20.3
	c0,17.6-14.9,25.4-33.6,25.4h-32L291.7,349.3z M320.3,383.9c9.5,0,13.7-4,13.7-10.3c0-6.7-4.4-9.2-13.5-9.2h-9.3v19.5H320.3z
	 M322.1,420.6c10.7,0,16.1-3.8,16.1-11.6c0-7.6-5.4-10.7-16.1-10.7h-10.9v22.3L322.1,420.6L322.1,420.6z"/>
<path class="st0" d="M371.8,349.3h31.1c18.3,0,33.3,6.4,33.3,26.9c0,19.8-15,28.4-33.3,28.4h-11.6v31.1h-19.5V349.3z M401.3,389.1
	c10.3,0,15.8-4.4,15.8-12.9s-5.5-11.4-15.8-11.4h-10v24.3H401.3z M399.3,399.5l13.5-12.5l27.5,48.7h-21.8L399.3,399.5z"/>
<path class="st0" d="M453,349.3h54.1v16.4h-34.6V383H502v16.4h-29.4v19.9h35.9v16.4H453V349.3z"/>
<path class="st0" d="M514.5,349.3h20.7l10.4,40.2c2.6,9.4,4.3,18.2,6.9,27.7h0.5c2.6-9.5,4.4-18.2,6.9-27.7l10.2-40.2h20l-26,86.3
	h-23.4L514.5,349.3z"/>
<path class="st0" d="M598.2,349.3h19.5v86.3h-19.5V349.3z"/>
<path class="st0" d="M638.1,349.3h19.5v70h34.1v16.4h-53.6V349.3z"/>
<path class="st0" d="M706.7,349.3h19.5v70h34.1v16.4h-53.6V349.3z"/>
<path class="st0" d="M775.3,349.3h54.1v16.4h-34.6V383h29.4v16.4h-29.4v19.9h35.9v16.4h-55.4V349.3z"/>
<path class="st0" d="M695,197.7c48.5-45.8,82.7-78.4,82.7-105.7c0-18.4-10.2-28.6-27-28.6c-13.6,0-24.3,9.3-33.8,19.4L693,59
	c18.8-20,36.5-30.2,63.8-30.2c37.6,0,63.2,24,63.2,60.7c0,32.1-30,66.3-61.2,98.5c9.8-1.1,23.1-2.2,31.9-2.2H829V223H695V197.7z"/>
<path class="st0" d="M827.2,87c0-16.1,11.5-26,23.4-26c14.1,0,21.1,10.2,21.1,23.8c0,2.2-0.2,4.4-0.6,6.5h-29.6
	c1.3,7.2,6.2,10.5,12.8,10.5c3.8-0.1,7.5-1.2,10.7-3.2l4.8,8.9c-5.2,3.5-11.3,5.5-17.6,5.6C838.1,113,827.2,103.4,827.2,87z
	 M859.1,81.6c0-5.4-2.4-9.4-8.2-9.4c-4.6,0-8.7,3.1-9.7,9.4H859.1z"/>
<path class="st0" d="M233.1,33c0,0.4,0,0.8,0,1.2s0,0.8,0,1.2s-0.1,0.8-0.1,1.2s-0.1,0.8-0.1,1.2s-0.1,0.8-0.2,1.2s-0.1,0.8-0.2,1.2
	s-0.2,0.8-0.3,1.2s-0.2,0.8-0.3,1.2s-0.2,0.8-0.3,1.1s-0.2,0.8-0.4,1.1c-0.9,2.4-2,4.8-3.2,7.1c-1.2,2.2-2.3,4.4-3.7,6.5
	c-6.7,10.4-15.4,19.4-24.4,27.7c-3.1,2.9-6.2,5.7-9.3,8.4l-8.4,7.1c-1.1,0.9-2.3,1.8-3.4,2.8c-0.3,0.2-0.7,0.5-1,0.8
	c-1.3,1-4.6,3.9-6,4.1c-0.5,0.1-1.1,0-1.5-0.3c-0.9-0.5-1.7-1.1-2.5-1.8c-1.2-1-2.5-2-3.8-2.9c-12-10.2-23.6-20.3-34.2-32
	c-5.8-6.5-11.5-13.4-15.5-21.2c-2.6-4.9-4.2-10.3-4.7-15.8c-0.7-8.5,2-16.9,7.4-23.5c5.7-6.7,13.7-10.9,22.5-11.8
	c8.8-0.6,17.4,2.3,24,8.1c3.1,2.6,5.8,5.7,7.9,9.1C176.3,9.3,184.6,3,194,1c17.4-3.7,34.5,7.4,38.2,24.8c0,0,0,0,0,0.1
	c0.1,0.4,0.2,0.8,0.2,1.2s0.1,0.8,0.2,1.2s0.1,0.8,0.1,1.2s0.1,0.8,0.1,1.2s0,0.8,0.1,1.2C233,32.3,233.1,32.6,233.1,33z"/>
</svg>
